<svg width="18" height="18" viewBox="0 0 18 18" xmlns="http://www.w3.org/2000/svg">
<path d="M3.74414 9.70312C4.61914 10.5781 5.68164 11.0156 6.93164 11.0156C8.18164 11.0156 9.24414 10.5781 10.1191 9.70312C10.9941 8.82812 11.4316 7.76562 11.4316 6.51562C11.4316 5.26562 10.9941 4.20313 10.1191 3.32812C9.24414 2.45312 8.18164 2.01562 6.93164 2.01562C5.68164 2.01562 4.61914 2.45312 3.74414 3.32812C2.86914 4.20313 2.43164 5.26562 2.43164 6.51562C2.43164 7.76562 2.86914 8.82812 3.74414 9.70312ZM12.9316 11.0156L17.9004 15.9844L16.4004 17.4844L11.4316 12.5156V11.7188L11.1504 11.4375C9.96289 12.4688 8.55664 12.9844 6.93164 12.9844C5.11914 12.9844 3.57227 12.3594 2.29102 11.1094C1.04102 9.85938 0.416016 8.32812 0.416016 6.51562C0.416016 4.70312 1.04102 3.17188 2.29102 1.92188C3.57227 0.640625 5.11914 0 6.93164 0C8.74414 0 10.2754 0.640625 11.5254 1.92188C12.7754 3.17188 13.4004 4.70312 13.4004 6.51562C13.4004 7.17188 13.2441 7.92188 12.9316 8.76562C12.6191 9.57812 12.2598 10.2344 11.8535 10.7344L12.1348 11.0156H12.9316Z" fill="#7E7E7E"/>
</svg>
